<?xml version="1.0" encoding="utf-8"?>
<!-- Generator: Adobe Illustrator 16.0.0, SVG Export Plug-In . SVG Version: 6.00 Build 0)  -->
<!DOCTYPE svg PUBLIC "-//W3C//DTD SVG 1.1//EN" "http://www.w3.org/Graphics/SVG/1.1/DTD/svg11.dtd">
<svg version="1.1" xmlns="http://www.w3.org/2000/svg" xmlns:xlink="http://www.w3.org/1999/xlink" x="0px" y="0px" width="640px"
	 height="480px" viewBox="0 0 640 480" enable-background="new 0 0 640 480" xml:space="preserve">
<g id="guide" display="none">
	<rect x="-16" y="-17" display="inline" fill="#13FF00" width="671" height="513"/>
</g>
<g id="objects">
	<g>
		<path fill="#E69225" d="M36.027,34.955H1v5.668h38.411c1.241,0,2.256-1.015,2.256-2.256V20.036c0-1.241-1.015-2.425-2.256-2.595
			L6.669,12.591V6.669H171V1H3.256C2.016,1,1,2.016,1,3.256v12.042c0,1.241,1.016,2.425,2.256,2.594l32.771,4.823V34.955z"/>
		<path fill="#E69225" d="M135.974,22.744v17.88h-5.668V20.008c0-1.241,1.015-2.426,2.256-2.595l36.183-5.331
			c1.241-0.169,2.256,0.677,2.256,1.946v1.297v4.541v20.756h-5.668v-3.384v-4.54V18.429L135.974,22.744z"/>
		<path fill="#E69225" d="M120.068,17.78H93.643c-2.651,0-4.823,2.172-4.823,4.823v18.021h5.669v-6.515h24.733v6.515h5.668V22.603
			C124.862,19.952,122.719,17.78,120.068,17.78 M119.222,28.44H94.489v-2.736c0-1.24,1.015-2.256,2.256-2.256h20.192
			c1.241,0,2.256,1.016,2.256,2.256v2.736H119.222z"/>
		<path fill="#E69225" d="M78.442,34.109c2.651,0,4.823-2.171,4.823-4.822v-6.684c0-2.651-2.172-4.823-4.823-4.823H49.479
			c-1.241,0-2.256,1.016-2.256,2.256v20.587h5.668v-6.515H78.442z M77.624,26.184c0,1.241-1.015,2.256-2.256,2.256H52.891v-5.02
			h22.477c1.241,0,2.256,1.015,2.256,2.256V26.184z"/>
	</g>
	<g>
		<path fill="#FFFFFF" d="M36.027,76.955H1v5.668h38.411c1.241,0,2.256-1.015,2.256-2.256V62.036c0-1.241-1.015-2.425-2.256-2.595
			L6.669,54.591v-5.922H171V43H3.256C2.016,43,1,44.016,1,45.256v12.042c0,1.241,1.016,2.425,2.256,2.594l32.771,4.823V76.955z"/>
		<path fill="#FFFFFF" d="M135.974,64.744v17.879h-5.669V62.008c0-1.241,1.016-2.426,2.257-2.595l36.183-5.331
			c1.24-0.169,2.256,0.677,2.256,1.946v1.297v4.541v20.756h-5.668v-3.384v-4.54V60.429L135.974,64.744z"/>
		<path fill="#FFFFFF" d="M120.068,59.78H93.643c-2.65,0-4.822,2.172-4.822,4.823v18.021h5.669v-6.514h24.733v6.514h5.668V64.603
			C124.862,61.952,122.719,59.78,120.068,59.78 M119.223,70.44H94.489v-2.736c0-1.24,1.015-2.256,2.256-2.256h20.192
			c1.24,0,2.256,1.016,2.256,2.256v2.736H119.223z"/>
		<path fill="#FFFFFF" d="M78.442,76.109c2.651,0,4.823-2.172,4.823-4.823v-6.684c0-2.651-2.172-4.823-4.823-4.823H49.479
			c-1.241,0-2.256,1.016-2.256,2.256v20.587h5.668v-6.514H78.442z M77.624,68.184c0,1.241-1.015,2.256-2.256,2.256H52.891v-5.02
			h22.477c1.241,0,2.256,1.015,2.256,2.256V68.184z"/>
	</g>
	<g>
		<path fill="#E69225" d="M198.514,17.978H181v2.834h19.205c0.621,0,1.129-0.507,1.129-1.128v-9.166
			c0-0.621-0.508-1.212-1.129-1.297l-16.371-2.425V3.834H266V1h-83.872C181.508,1,181,1.508,181,2.128v6.021
			c0,0.62,0.508,1.212,1.128,1.297l16.386,2.411V17.978z"/>
		<path fill="#E69225" d="M248.486,11.872v8.939h-2.834V10.504c0-0.62,0.508-1.213,1.129-1.297l18.091-2.666
			C265.492,6.457,266,6.88,266,7.515v0.648v2.271v10.378h-2.834V19.12v-2.27V9.714L248.486,11.872z"/>
		<path fill="#E69225" d="M240.534,9.39h-13.213c-1.325,0-2.411,1.086-2.411,2.412v9.01h2.834v-3.257h12.367v3.257h2.834v-9.01
			C242.932,10.476,241.859,9.39,240.534,9.39 M240.111,14.72h-12.367v-1.368c0-0.62,0.508-1.128,1.129-1.128h10.096
			c0.62,0,1.128,0.508,1.128,1.128v1.368H240.111z"/>
		<path fill="#E69225" d="M219.721,17.555c1.326,0,2.412-1.086,2.412-2.411v-3.342c0-1.326-1.086-2.412-2.412-2.412h-14.481
			c-0.62,0-1.128,0.508-1.128,1.128v10.293h2.834v-3.257H219.721z M219.312,13.592c0,0.621-0.508,1.128-1.129,1.128h-11.238v-2.51
			h11.238c0.621,0,1.129,0.508,1.129,1.128V13.592z"/>
	</g>
	<g>
		<path fill="#FFFFFF" d="M198.514,41.978H181v2.834h19.205c0.621,0,1.129-0.507,1.129-1.128v-9.166
			c0-0.621-0.508-1.212-1.129-1.297l-16.371-2.425v-2.961H266V25h-83.872c-0.62,0-1.128,0.508-1.128,1.128v6.021
			c0,0.62,0.508,1.212,1.128,1.297l16.386,2.411V41.978z"/>
		<path fill="#FFFFFF" d="M248.486,35.872v8.939h-2.834V34.504c0-0.62,0.508-1.213,1.129-1.297l18.091-2.666
			c0.62-0.084,1.128,0.338,1.128,0.973v0.648v2.271v10.378h-2.834V43.12v-2.27v-7.135L248.486,35.872z"/>
		<path fill="#FFFFFF" d="M240.534,33.39h-13.213c-1.325,0-2.411,1.086-2.411,2.412v9.01h2.834v-3.257h12.367v3.257h2.834v-9.01
			C242.932,34.476,241.859,33.39,240.534,33.39 M240.111,38.72h-12.367v-1.368c0-0.62,0.508-1.128,1.129-1.128h10.096
			c0.62,0,1.128,0.508,1.128,1.128v1.368H240.111z"/>
		<path fill="#FFFFFF" d="M219.721,41.555c1.326,0,2.412-1.086,2.412-2.411v-3.342c0-1.326-1.086-2.412-2.412-2.412h-14.481
			c-0.62,0-1.128,0.508-1.128,1.128v10.293h2.834v-3.257H219.721z M219.312,37.592c0,0.621-0.508,1.128-1.129,1.128h-11.238v-2.51
			h11.238c0.621,0,1.129,0.508,1.129,1.128V37.592z"/>
	</g>
	<circle fill="#E69224" cx="296" cy="21" r="20"/>
	<g>
		<path fill="#FFFFFF" d="M294.59,15.26c-0.854,0.489-1.544,0.91-2.07,1.263c-0.527,0.353-1.062,0.819-1.607,1.398
			c-0.509,0.543-0.899,1.113-1.171,1.71c-0.272,0.598-0.463,1.367-0.572,2.308h1.307c1.126,0,2.011,0.277,2.656,0.831
			c0.644,0.554,0.967,1.367,0.967,2.438c0,0.763-0.286,1.476-0.858,2.139c-0.572,0.663-1.357,0.994-2.356,0.994
			c-1.562,0-2.679-0.512-3.351-1.536c-0.672-1.024-1.008-2.37-1.008-4.038c0-1.178,0.254-2.252,0.763-3.221
			c0.508-0.97,1.125-1.835,1.853-2.597c0.744-0.779,1.534-1.441,2.37-1.985s1.535-0.988,2.098-1.333L294.59,15.26z M304.669,15.26
			c-0.854,0.489-1.544,0.91-2.07,1.263c-0.527,0.353-1.062,0.819-1.607,1.398c-0.527,0.561-0.922,1.136-1.185,1.724
			c-0.263,0.588-0.449,1.353-0.558,2.294h1.308c1.125,0,2.011,0.277,2.656,0.831c0.644,0.554,0.967,1.367,0.967,2.438
			c0,0.763-0.287,1.476-0.858,2.139c-0.573,0.663-1.358,0.994-2.357,0.994c-1.562,0-2.679-0.512-3.351-1.536
			c-0.672-1.024-1.008-2.37-1.008-4.038c0-1.178,0.254-2.252,0.763-3.221c0.508-0.97,1.125-1.835,1.853-2.597
			c0.744-0.779,1.534-1.441,2.37-1.985c0.835-0.544,1.534-0.988,2.097-1.333L304.669,15.26z"/>
	</g>
	<circle fill="#E69224" cx="359" cy="39" r="38"/>
	<g>
		<path fill="#FFFFFF" d="M356.32,28.094c-1.622,0.93-2.934,1.729-3.934,2.4c-1.001,0.671-2.019,1.557-3.054,2.656
			c-0.967,1.032-1.708,2.116-2.226,3.25c-0.518,1.135-0.88,2.597-1.087,4.384h2.484c2.139,0,3.821,0.527,5.047,1.579
			c1.224,1.053,1.837,2.597,1.837,4.632c0,1.449-0.544,2.805-1.63,4.063c-1.088,1.26-2.58,1.89-4.478,1.89
			c-2.968,0-5.09-0.973-6.366-2.919c-1.277-1.946-1.915-4.504-1.915-7.673c0-2.238,0.482-4.278,1.449-6.121
			c0.966-1.842,2.139-3.487,3.52-4.934c1.414-1.481,2.915-2.738,4.503-3.771c1.587-1.034,2.915-1.877,3.985-2.532L356.32,28.094z
			 M375.471,28.094c-1.622,0.93-2.934,1.729-3.934,2.4c-1.001,0.671-2.019,1.557-3.054,2.656c-1.001,1.066-1.752,2.159-2.252,3.276
			s-0.854,2.571-1.061,4.358h2.484c2.139,0,3.821,0.527,5.047,1.579c1.224,1.053,1.837,2.597,1.837,4.632
			c0,1.449-0.544,2.805-1.63,4.063c-1.088,1.26-2.58,1.89-4.478,1.89c-2.968,0-5.09-0.973-6.366-2.919
			c-1.277-1.946-1.915-4.504-1.915-7.673c0-2.238,0.482-4.278,1.449-6.121c0.966-1.842,2.139-3.487,3.52-4.934
			c1.414-1.481,2.915-2.738,4.503-3.771c1.587-1.034,2.915-1.877,3.985-2.532L375.471,28.094z"/>
	</g>
	<path fill="#666666" d="M282.604,82.553h-5.85V63.836h5.85V82.553z M279.531,61.493h-0.042c-2.118,0-3.489-1.431-3.489-3.241
		c0-1.851,1.414-3.252,3.571-3.252c2.157,0,3.484,1.397,3.527,3.246C283.098,60.058,281.729,61.493,279.531,61.493 M306,82.553
		h-6.63v-9.686c0-2.536-1.037-4.265-3.318-4.265c-1.744,0-2.714,1.167-3.166,2.293c-0.17,0.403-0.143,0.966-0.143,1.529v10.128
		h-6.571c0,0,0.086-17.158,0-18.717h6.571v2.937c0.388-1.285,2.485-3.119,5.838-3.119c4.154,0,7.418,2.692,7.418,8.491V82.553z"/>
	<path fill="#666666" d="M261,60.888c-1.103,0.49-2.291,0.82-3.534,0.97c1.271-0.762,2.246-1.969,2.705-3.405
		c-1.189,0.706-2.504,1.215-3.91,1.49c-1.12-1.195-2.721-1.944-4.492-1.944c-3.396,0-6.152,2.759-6.152,6.157
		c0,0.483,0.054,0.949,0.159,1.399c-5.115-0.256-9.648-2.703-12.687-6.431c-0.529,0.915-0.833,1.971-0.833,3.099
		c0,2.132,1.087,4.019,2.738,5.122c-1.008-0.032-1.958-0.309-2.789-0.768v0.076c0,2.983,2.122,5.471,4.939,6.036
		c-0.517,0.145-1.06,0.217-1.624,0.217c-0.396,0-0.781-0.036-1.156-0.109c0.781,2.444,3.054,4.226,5.749,4.273
		c-2.106,1.65-4.761,2.633-7.645,2.633c-0.496,0-0.988-0.026-1.468-0.083c2.724,1.746,5.959,2.765,9.435,2.765
		c11.323,0,17.511-9.378,17.511-17.514c0-0.269-0.005-0.535-0.017-0.798C259.132,63.205,260.177,62.123,261,60.888"/>
	<path fill="#666666" d="M196,63.598h2.999v-2.916c0-1.287,0.032-3.269,0.968-4.497c0.982-1.3,2.333-2.186,4.655-2.186
		c3.786,0,5.378,0.539,5.378,0.539l-0.75,4.446c0,0-1.25-0.362-2.418-0.362c-1.166,0-2.211,0.418-2.211,1.585v3.39h4.785
		l-0.333,4.342h-4.452v15.082h-5.623V67.94H196V63.598z"/>
</g>
</svg>
